<?xml version="1.0" encoding="utf-8"?>
<!-- Generator: Adobe Illustrator 25.0.1, SVG Export Plug-In . SVG Version: 6.00 Build 0)  -->
<svg version="1.1" id="Capa_1" xmlns="http://www.w3.org/2000/svg" xmlns:xlink="http://www.w3.org/1999/xlink" x="0px" y="0px"
	 viewBox="0 0 464 240" style="enable-background:new 0 0 464 240;" xml:space="preserve">
<style type="text/css">
	.st0{fill:#00D975;}
	.st1{fill:#FFFFFF;}
</style>
<polygon class="st0" points="280.6,123 275,136.7 244,64.6 227.9,64.6 269.5,159.5 282.5,127.3 "/>
<g>
	<path class="st1" d="M111.6,108.6c-0.2,25.7-16.5,49.9-45,49.9c-6.5,0-16.5-2-23.2-6.7c-4.7-3.1-8.5-7.1-8.5-7.1l-9.4,14.9V13.7
		h16.1v107.7c0,23.4,17.9,38.5,36,33.8c15.1-3.9,20-25.5,18.7-48.5c-1.2-23.4-14.3-38.7-31.8-38.3c-8.8,0.4-17.3,7.3-21.6,12.4
		c2.7-5.7,11.8-19.3,28.3-20C92.6,60.3,111.8,75,111.6,108.6z"/>
	<path class="st1" d="M213.4,129.6l1.2-2.2c-3.7,16.9-19.4,31.6-40.9,31.2c-25.3-0.4-45.4-19.6-46-48.3
		c-0.4-21.8,10.8-35.6,22.8-42.8c9.2-5.7,19.6-7.1,27.9-6.7c20.6,1.2,36.1,17.3,35.4,42.4h-70.5c0,25.1,13.9,42.6,36.1,43.6
		C193.2,147.3,206.1,142.8,213.4,129.6z M143.3,100.9h55c2.2-8.3,3.3-25-6.3-33c-8.8-7.5-23.8-7.5-34.4,0
		C146.8,75.6,143.8,90.9,143.3,100.9z"/>
	<path class="st1" d="M396.4,63.6c-9,0.2-15.1,4.9-16.1,12.4c-1,5.9,0,17.3,24.6,23.8c26.3,7.1,33.6,16.1,33.6,28.9
		c0.2,14.7-9.8,29.7-33.8,29.7c-20.2,0-31-7.1-37.1-10.4l-0.4-27.3c2.6,5.9,9.8,19.1,20.8,26.3c15.3,10,38.3,11.4,40.3-3.7
		c2-10.2-4.1-20.2-28.5-26.9c-23.6-6.9-30.1-16.3-30.1-28.1c0.2-14.1,11.4-27.5,34.6-27.7c17.3,0,26.5,7.5,28.1,8.8v20.4
		C424.7,74.2,410.5,63.6,396.4,63.6z"/>
	<path class="st1" d="M354.4,64.6l-29.3,72.1l-31-72.1H278l39.9,91.2l-2.1,5.3c-2.6,6.9-6.7,12-13.2,14.5c-3.9,1.2-8.4,1.6-12.8,0.4
		l-0.8,1.9l-5.5,13.6c12.8-0.5,27.1-9.3,35.6-30.5l1.2-3.3l37.3-93.1L354.4,64.6L354.4,64.6z"/>
</g>
<g>
	<path class="st0" d="M25.5,195.7v-2.6H49v2.6H38.8v30.1h-2.9v-30.1H25.5z"/>
	<path class="st0" d="M56,225.8h-2.8v-34H56v11.8c2.6-1.2,5.2-1.8,7.6-1.8c3.1,0,5.2,0.8,6.3,2.5c1.1,1.7,1.6,4.7,1.6,9.1v12.4h-2.8
		v-12.2c0-3.6-0.3-6.1-1-7.3c-0.7-1.3-2.1-1.9-4.4-1.9c-1.1,0-2.2,0.1-3.5,0.4c-1.2,0.3-2.1,0.5-2.8,0.8l-1,0.4L56,225.8L56,225.8z"
		/>
	<path class="st0" d="M93.9,223.4l1.4-0.1l0.1,2.3c-3.6,0.4-6.6,0.7-9,0.7c-3.4,0-5.8-1-7.1-3c-1.3-2-2-5-2-9.1
		c0-8.2,3.2-12.3,9.7-12.3c3.1,0,5.4,0.9,7,2.7s2.3,4.6,2.3,8.5l-0.1,2.3h-16c0,2.9,0.5,5,1.5,6.4c1,1.4,2.7,2.1,5.1,2.1
		S91.5,223.6,93.9,223.4z M80.1,212.8h13.3c0-3.1-0.5-5.3-1.5-6.6c-1-1.3-2.7-2-4.9-2s-3.9,0.7-5.1,2.1
		C80.7,207.6,80.1,209.8,80.1,212.8z"/>
	<path class="st0" d="M110.4,202.2h2.9l5.2,21.1h0.7l6.1-20.6h3l6.1,20.6h0.7l5.2-21.1h2.9l-5.9,23.5h-4.9l-5.6-19.4l-5.6,19.4h-4.8
		L110.4,202.2z"/>
	<path class="st0" d="M148.2,196.4v-3.5h2.8v3.5H148.2z M148.2,225.8v-23.5h2.8v23.5H148.2z"/>
	<path class="st0" d="M165.1,204.4c-3.7,0-5.6,1.3-5.6,4c0,1.2,0.4,2.1,1.2,2.6c0.8,0.5,2.7,1,5.5,1.5c2.9,0.5,4.9,1.1,6.1,2
		c1.2,0.9,1.8,2.5,1.8,4.9s-0.8,4.2-2.3,5.3s-3.8,1.7-6.8,1.7c-1.7,0-4-0.2-6.7-0.7l-1.4-0.2l0.2-2.5c3.5,0.5,6.2,0.8,8.1,0.8
		c1.9,0,3.4-0.3,4.4-1c1.1-0.7,1.6-1.8,1.6-3.3c0-1.6-0.4-2.6-1.3-3.1c-0.9-0.5-2.7-1-5.6-1.4s-4.8-1.1-6-1.9
		c-1.2-0.8-1.7-2.4-1.7-4.6s0.8-3.9,2.4-4.9c1.6-1,3.6-1.6,5.9-1.6c1.9,0,4.2,0.2,7.1,0.6l1.3,0.2l-0.1,2.5
		C169.9,204.6,167.2,204.4,165.1,204.4z"/>
	<path class="st0" d="M195.4,223.4l1.4-0.1l0.1,2.3c-3.6,0.4-6.6,0.7-9,0.7c-3.4,0-5.8-1-7.1-3c-1.4-2-2-5-2-9.1
		c0-8.2,3.2-12.3,9.7-12.3c3.1,0,5.4,0.9,7,2.7c1.5,1.8,2.3,4.6,2.3,8.5l-0.1,2.3h-16c0,2.9,0.5,5,1.5,6.4c1,1.4,2.7,2.1,5.1,2.1
		C190.7,223.7,193.1,223.6,195.4,223.4z M181.7,212.8H195c0-3.1-0.5-5.3-1.5-6.6c-1-1.3-2.6-2-4.9-2s-3.9,0.7-5.1,2.1
		C182.3,207.6,181.7,209.8,181.7,212.8z"/>
	<path class="st0" d="M221.1,204.4c-3.7,0-5.6,1.3-5.6,4c0,1.2,0.4,2.1,1.2,2.6c0.8,0.5,2.7,1,5.5,1.5c2.9,0.5,4.9,1.1,6.1,2
		c1.2,0.9,1.8,2.5,1.8,4.9s-0.8,4.2-2.3,5.3s-3.8,1.7-6.8,1.7c-1.7,0-4-0.2-6.7-0.7l-1.4-0.2l0.2-2.5c3.5,0.5,6.2,0.8,8.1,0.8
		c1.9,0,3.4-0.3,4.4-1c1.1-0.7,1.6-1.8,1.6-3.3c0-1.6-0.4-2.6-1.3-3.1c-0.9-0.5-2.7-1-5.6-1.4s-4.8-1.1-6-1.9
		c-1.2-0.8-1.7-2.4-1.7-4.6s0.8-3.9,2.4-4.9c1.6-1,3.6-1.6,5.9-1.6c1.9,0,4.2,0.2,7.1,0.6l1.3,0.2l-0.1,2.5
		C225.8,204.6,223.1,204.4,221.1,204.4z"/>
	<path class="st0" d="M235.8,196.4v-3.5h2.8v3.5H235.8z M235.8,225.8v-23.5h2.8v23.5H235.8z"/>
	<path class="st0" d="M263.2,191.8v34h-2.8V224c-2.5,1.5-5,2.2-7.5,2.2c-1.2,0-2.2-0.1-3-0.4c-0.9-0.3-1.7-0.8-2.6-1.6
		c-1.8-1.6-2.7-4.7-2.7-9.4s0.8-8,2.3-10.1c1.5-2,4.1-3.1,7.6-3.1c1.4,0,3.4,0.2,5.9,0.6v-10.6L263.2,191.8L263.2,191.8z
		 M251.1,223.4c0.6,0.2,1.3,0.3,2.3,0.3c0.9,0,2-0.2,3.2-0.5s2.2-0.7,2.9-1l1-0.5v-16.9c-2.5-0.4-4.5-0.6-5.8-0.6
		c-2.7,0-4.5,0.8-5.5,2.4s-1.5,4.2-1.5,7.6c0,4,0.6,6.6,1.8,7.9C249.9,222.8,250.5,223.2,251.1,223.4z"/>
	<path class="st0" d="M285.8,223.4l1.4-0.1l0.1,2.3c-3.5,0.4-6.5,0.7-9,0.7c-3.4,0-5.8-1-7.1-3c-1.4-2-2-5-2-9.1
		c0-8.2,3.2-12.3,9.7-12.3c3.1,0,5.4,0.9,7,2.7s2.3,4.6,2.3,8.5l-0.1,2.3h-16c0,2.9,0.5,5,1.5,6.4c1,1.4,2.7,2.1,5.1,2.1
		C281.1,223.7,283.5,223.6,285.8,223.4z M272.1,212.8h13.3c0-3.1-0.5-5.3-1.5-6.6c-1-1.3-2.6-2-4.9-2c-2.2,0-4,0.7-5.1,2.1
		C272.7,207.6,272.1,209.8,272.1,212.8z"/>
	<path class="st0" d="M303.4,214c0-4.4,0.7-7.6,2.2-9.4c1.5-1.9,4-2.8,7.6-2.8s6.1,0.9,7.6,2.8s2.2,5,2.2,9.4s-0.7,7.6-2,9.5
		c-1.4,1.9-4,2.8-7.8,2.8c-3.8,0-6.4-0.9-7.8-2.8C304,221.6,303.4,218.4,303.4,214z M306.3,213.9c0,3.7,0.4,6.3,1.3,7.7
		c0.9,1.4,2.8,2.1,5.6,2.1s4.8-0.7,5.7-2.2c0.9-1.4,1.3-4,1.3-7.7s-0.5-6.2-1.5-7.6c-1-1.4-2.8-2.1-5.5-2.1s-4.5,0.7-5.5,2
		C306.8,207.6,306.3,210.2,306.3,213.9z"/>
	<path class="st0" d="M332.9,204.7v21.1h-2.8v-21.1H327v-2.5h3.1v-2.4c0-3.3,0.5-5.6,1.4-6.8c0.9-1.2,2.5-1.8,4.9-1.8l4.6,0.2v2.4
		c-1.9-0.1-3.2-0.1-4.1-0.1c-1.5,0-2.5,0.4-3,1.2c-0.5,0.8-0.8,2.4-0.8,4.8v2.4h7.1v2.5L332.9,204.7L332.9,204.7z"/>
	<path class="st0" d="M372.4,191.8v34h-2.8V224c-2.5,1.5-5,2.2-7.5,2.2c-1.2,0-2.2-0.1-3-0.4c-0.9-0.3-1.7-0.8-2.6-1.6
		c-1.8-1.6-2.7-4.7-2.7-9.4s0.8-8,2.3-10.1c1.5-2,4-3.1,7.6-3.1c1.4,0,3.4,0.2,5.9,0.6v-10.6L372.4,191.8L372.4,191.8z M360.3,223.4
		c0.6,0.2,1.3,0.3,2.3,0.3s2-0.2,3.2-0.5c1.2-0.4,2.2-0.7,2.9-1l1-0.5v-16.9c-2.5-0.4-4.5-0.6-5.8-0.6c-2.7,0-4.5,0.8-5.5,2.4
		s-1.5,4.2-1.5,7.6c0,4,0.6,6.6,1.8,7.9C359.1,222.8,359.7,223.2,360.3,223.4z"/>
	<path class="st0" d="M395.6,209.3v12.6c0.1,1.2,1.1,1.9,3.1,2.1l-0.1,2.3c-2.4,0-4.2-0.6-5.3-1.9c-3,1.3-5.9,1.9-8.9,1.9
		c-2.1,0-3.7-0.6-4.8-1.8c-1.1-1.2-1.6-2.9-1.6-5.2c0-2.2,0.6-3.9,1.7-5c1.1-1.1,2.9-1.8,5.2-2l8-0.8v-2.2c0-1.8-0.4-3-1.1-3.8
		c-0.8-0.8-1.8-1.1-3.1-1.1c-2,0-4.6,0.2-7.8,0.6l-1.5,0.1l-0.1-2.3c3.5-0.7,6.5-1,9.1-1s4.5,0.6,5.6,1.8
		C395,204.8,395.6,206.7,395.6,209.3z M380.8,219.1c0,3.2,1.3,4.8,3.9,4.8c1.1,0,2.4-0.1,3.7-0.4c1.4-0.3,2.4-0.5,3.2-0.8l1.2-0.4
		v-8.5l-7.7,0.8c-1.5,0.1-2.6,0.6-3.3,1.3C381.2,216.6,380.8,217.6,380.8,219.1z"/>
	<path class="st0" d="M414.8,204.7H407v11.6c0,3.1,0.2,5,0.7,6s1.5,1.4,3.1,1.4l4.3-0.3l0.2,2.4c-2.1,0.3-3.7,0.5-4.8,0.5
		c-2.4,0-4-0.6-5-1.8c-0.9-1.2-1.4-3.4-1.4-6.8v-13h-3.5v-2.5h3.5v-7.4h2.8v7.4h7.9L414.8,204.7L414.8,204.7z"/>
	<path class="st0" d="M435.4,209.3v12.6c0.1,1.2,1.1,1.9,3.1,2.1l-0.1,2.3c-2.4,0-4.2-0.6-5.3-1.9c-3,1.3-5.9,1.9-8.9,1.9
		c-2.1,0-3.7-0.6-4.8-1.8c-1.1-1.2-1.6-2.9-1.6-5.2c0-2.2,0.6-3.9,1.7-5c1.1-1.1,2.9-1.8,5.2-2l8-0.8v-2.2c0-1.8-0.4-3-1.1-3.8
		c-0.8-0.8-1.8-1.1-3.1-1.1c-2,0-4.6,0.2-7.8,0.6l-1.5,0.1l-0.1-2.3c3.5-0.7,6.5-1,9.1-1s4.5,0.6,5.6,1.8
		C434.9,204.8,435.4,206.7,435.4,209.3z M420.6,219.1c0,3.2,1.3,4.8,3.9,4.8c1.1,0,2.4-0.1,3.7-0.4c1.4-0.3,2.4-0.5,3.2-0.8l1.2-0.4
		v-8.5l-7.7,0.8c-1.5,0.1-2.6,0.6-3.3,1.3C421,216.6,420.6,217.6,420.6,219.1z"/>
</g>
</svg>
